HIERARCHY
ROOT Hips
{
	OFFSET 0.00000 0.00000 0.00000
	CHANNELS 6 Xposition Yposition Zposition Zrotation Yrotation Xrotation 
	JOINT LHipJoint
	{
		OFFSET 0 0 0
		CHANNELS 3 Zrotation Yrotation Xrotation
		JOINT LeftUpLeg
		{
			OFFSET 1.17584 -1.63585 1.00361
			CHANNELS 3 Zrotation Yrotation Xrotation
			JOINT LeftLeg
			{
				OFFSET 2.23889 -6.15131 0.00000
				CHANNELS 3 Zrotation Yrotation Xrotation
				JOINT LeftFoot
				{
					OFFSET 2.65161 -7.28525 0.00000
					CHANNELS 3 Zrotation Yrotation Xrotation
					JOINT LeftToeBase
					{
						OFFSET 0.24898 -0.68407 1.57235
						CHANNELS 3 Zrotation Yrotation Xrotation
						End Site
						{
							OFFSET 0.00000 -0.00000 0.85838
						}
					}
				}
			}
		}
	}
	JOINT RHipJoint
	{
		OFFSET 0 0 0
		CHANNELS 3 Zrotation Yrotation Xrotation
		JOINT RightUpLeg
		{
			OFFSET -1.15592 -1.63585 1.00361
			CHANNELS 3 Zrotation Yrotation Xrotation
			JOINT RightLeg
			{
				OFFSET -2.34071 -6.43104 0.00000
				CHANNELS 3 Zrotation Yrotation Xrotation
				JOINT RightFoot
				{
					OFFSET -2.59113 -7.11908 0.00000
					CHANNELS 3 Zrotation Yrotation Xrotation
					JOINT RightToeBase
					{
						OFFSET -0.17867 -0.49089 1.70981
						CHANNELS 3 Zrotation Yrotation Xrotation
						End Site
						{
							OFFSET -0.00000 -0.00000 0.89861
						}
					}
				}
			}
		}
	}
	JOINT LowerBack
	{
		OFFSET 0 0 0
		CHANNELS 3 Zrotation Yrotation Xrotation
		JOINT Spine
		{
			OFFSET -0.02255 1.90764 -0.16605
			CHANNELS 3 Zrotation Yrotation Xrotation
			JOINT Spine1
			{
				OFFSET -0.00365 1.92150 -0.04898
				CHANNELS 3 Zrotation Yrotation Xrotation
				JOINT Neck
				{
					OFFSET 0 0 0
					CHANNELS 3 Zrotation Yrotation Xrotation
					JOINT Neck1
					{
						OFFSET 0.00372 1.59170 0.08694
						CHANNELS 3 Zrotation Yrotation Xrotation
						JOINT Head
						{
							OFFSET 0.12558 1.58643 -0.08078
							CHANNELS 3 Zrotation Yrotation Xrotation
							End Site
							{
								OFFSET 0.04211 1.60835 -0.03803
							}
						}
					}
				}
				JOINT LeftShoulder
				{
					OFFSET 0 0 0
					CHANNELS 3 Zrotation Yrotation Xrotation
					JOINT LeftArm
					{
						OFFSET 3.69324 0.96316 0.19077
						CHANNELS 3 Zrotation Yrotation Xrotation
						JOINT LeftForeArm
						{
							OFFSET 4.87796 -0.00000 -0.00000
							CHANNELS 3 Zrotation Yrotation Xrotation
							JOINT LeftHand
							{
								OFFSET 3.23169 -0.00000 0.00000
								CHANNELS 3 Zrotation Yrotation Xrotation
								JOINT LeftFingerBase
								{
									OFFSET 0 0 0
									CHANNELS 3 Zrotation Yrotation Xrotation
									JOINT LeftHandIndex1
									{
										OFFSET 0.73132 -0.00000 0.00000
										CHANNELS 3 Zrotation Yrotation Xrotation
										End Site
										{
											OFFSET 0.58961 -0.00000 0.00000
										}
									}
								}
								JOINT LThumb
								{
									OFFSET 0 0 0
									CHANNELS 3 Zrotation Yrotation Xrotation
									End Site
									{
										OFFSET 0.59861 -0.00000 0.59861
									}
								}
							}
						}
					}
				}
				JOINT RightShoulder
				{
					OFFSET 0 0 0
					CHANNELS 3 Zrotation Yrotation Xrotation
					JOINT RightArm
					{
						OFFSET -3.66103 0.75145 0.08281
						CHANNELS 3 Zrotation Yrotation Xrotation
						JOINT RightForeArm
						{
							OFFSET -4.91430 -0.00000 0.00000
							CHANNELS 3 Zrotation Yrotation Xrotation
							JOINT RightHand
							{
								OFFSET -3.29093 -0.00000 0.00000
								CHANNELS 3 Zrotation Yrotation Xrotation
								JOINT RightFingerBase
								{
									OFFSET 0 0 0
									CHANNELS 3 Zrotation Yrotation Xrotation
									JOINT RightHandIndex1
									{
										OFFSET -0.54512 -0.00000 0.00000
										CHANNELS 3 Zrotation Yrotation Xrotation
										End Site
										{
											OFFSET -0.43949 -0.00000 0.00000
										}
									}
								}
								JOINT RThumb
								{
									OFFSET 0 0 0
									CHANNELS 3 Zrotation Yrotation Xrotation
									End Site
									{
										OFFSET -0.44620 -0.00000 0.44620
									}
								}
							}
						}
					}
				}
			}
		}
	}
}
MOTION
Frames: 6
Frame Time: .0083333
21.0118 16.1544 0.1445 0 0 0 0 0 0 -21 0 0 0 0 0 0 0 0 0 0 0 0 0 0 21 0 0 0 0 0 0 0 0 0 0 0 0 0 0 0 0 0 0 0 0 0 0 -16 0 0 21 0 0 11 0 0 0 -8 0 0 0 0 0 0 0 0 0 0 0 0 0 0 0 0 0 0 0 0 8 0 0 0 0 0 0 0 0 0 0 0 0 0 0 0 0 0
21.0118 16.1544 0.1445 -74.6331 -83.9047 83.0909 0.0000 0.0000 0.0000 -6.5344 -4.4751 -15.3056 3.9109 12.0408 35.8766 4.0646 0.7945 -38.5624 1.7873 -8.4083 -23.9613 0.0000 0.0000 0.0000 10.3503 15.3171 -32.6871 -5.4090 -13.8301 42.5611 -1.4621 -8.1162 -27.0577 -1.1999 -6.9502 19.5680 5.8177 -0.2227 -2.3409 0.7529 -0.5503 1.6539 -2.5109 -0.1698 2.9779 -2.6875 -2.2484 0.1196 9.7213 -2.4340 -11.9409 3.4809 -1.6313 -3.3891 -0.0000 0.0000 0.0000 -86.1445 -7.8174 43.8346 17.2225 -27.1502 -4.1884 -0.0000 -0.0000 4.6623 18.4115 -23.5434 -7.5740 -7.1250 0.0000 -0.0000 -6.6611 5.4553 6.0395 -0.0000 0.0000 0.0000 83.3109 10.0368 20.9710 -19.7476 30.3371 -5.4033 0.0000 -0.0000 -8.5791 -17.8637 -41.9982 12.1693 7.1250 -0.0000 -0.0000 29.7432 -71.4137 -19.2243
21.0621 16.1446 0.1659 -80.2749 -85.0687 89.1502 0.0000 0.0000 0.0000 -7.7842 -4.3789 -15.9417 3.9451 12.0870 36.0404 4.0896 0.6723 -38.6444 1.6137 -8.0102 -22.7451 0.0000 0.0000 0.0000 8.9372 15.7826 -33.5360 -5.3785 -13.7978 42.4334 -1.3965 -8.3553 -26.7493 -1.1279 -6.7457 18.9641 4.2252 -0.1498 -2.4426 0.4680 -0.3769 1.4390 -1.9052 -0.1155 2.8293 -2.6057 -2.2812 0.1854 9.2615 -2.5091 -12.0642 3.3313 -1.6547 -3.4424 -0.0000 0.0000 0.0000 -85.9439 -7.8927 43.1552 17.4272 -27.4175 -4.2822 -0.0000 -0.0000 4.6841 18.6401 -23.7242 -7.7286 -7.1250 0.0000 -0.0000 -6.5338 5.2349 5.9501 -0.0000 0.0000 0.0000 83.9920 9.6265 22.6710 -19.3376 29.8361 -5.1978 0.0000 -0.0000 -3.9968 -23.9101 -34.9574 14.2531 7.1250 -0.0000 -0.0000 12.5826 -66.9853 -6.7057
21.1043 16.1366 0.1917 -86.0486 -86.2061 95.3289 0.0000 0.0000 0.0000 -9.1324 -4.7195 -16.4956 4.0018 12.1627 36.3101 4.1577 0.9620 -39.0552 1.5518 -7.8623 -22.2967 0.0000 0.0000 0.0000 7.4781 16.0211 -34.3019 -5.3313 -13.7475 42.2351 -1.2644 -8.8046 -26.0961 -0.9336 -6.1548 17.2342 2.7183 -0.1216 -3.0415 0.1463 -0.2903 1.4765 -1.3905 -0.0903 3.2131 -2.7415 -2.2669 0.3436 9.0718 -2.4957 -12.4778 3.3060 -1.6488 -3.5951 -0.0000 0.0000 0.0000 -85.6010 -8.1512 42.6969 17.7655 -27.8558 -4.4391 -0.0000 -0.0000 4.4284 19.5714 -23.1666 -7.9620 -7.1250 0.0000 -0.0000 -5.9096 5.6645 5.3265 -0.0000 0.0000 0.0000 84.6612 9.5423 24.1246 -18.9557 29.3636 -5.0091 0.0000 0.0000 1.1135 -29.2221 -29.5309 15.4145 7.1250 -0.0000 -0.0000 2.1462 -62.9546 -0.9358
21.1404 16.1223 0.2131 -96.5426 -87.1794 106.1710 0.0000 0.0000 0.0000 -10.4047 -5.0994 -16.9451 4.0638 12.2449 36.6038 4.2273 1.3516 -39.5031 1.4913 -7.7145 -21.8504 0.0000 0.0000 0.0000 6.1132 16.3053 -34.9014 -5.2807 -13.6931 42.0218 -1.1073 -9.1232 -25.1307 -0.6731 -5.2462 14.6120 1.4173 -0.0835 -3.4795 -0.1840 -0.1761 1.4157 -0.9955 -0.0551 3.4031 -3.1652 -2.1913 0.0534 9.1537 -2.4085 -12.2996 3.3914 -1.5800 -3.4901 -0.0000 0.0000 0.0000 -85.2791 -8.1640 42.1501 18.0836 -28.2641 -4.5887 -0.0000 -0.0000 4.7040 20.8754 -22.8733 -8.4320 -7.1250 0.0000 -0.0000 -5.0709 5.7608 4.5546 -0.0000 0.0000 0.0000 85.2301 9.2637 25.7650 -18.8376 29.2164 -4.9513 0.0000 0.0000 5.1334 -33.3594 -25.8384 16.0101 7.1250 -0.0000 -0.0000 -4.2392 -60.0339 1.5568
21.1816 16.1087 0.2370 -111.7280 -87.6452 121.6170 0.0000 0.0000 0.0000 -11.2389 -5.3615 -17.3889 4.1341 12.3368 36.9340 4.2940 1.6024 -39.8928 1.4269 -7.5536 -21.3661 0.0000 0.0000 0.0000 5.2010 16.5338 -35.4140 -5.2251 -13.6329 41.7862 -0.9905 -9.3091 -24.3411 -0.4988 -4.5279 12.5668 0.4808 -0.0430 -3.7705 -0.4049 -0.0701 1.3626 -0.6912 -0.0201 3.5156 -3.3628 -2.1518 -0.0866 8.9739 -2.3785 -12.2788 3.3658 -1.5444 -3.4627 -0.0000 -0.0000 0.0000 -84.9795 -8.2606 41.6044 18.3539 -28.6080 -4.7175 -0.0000 -0.0000 4.8964 21.6660 -22.6844 -8.7103 -7.1250 0.0000 -0.0000 -4.5594 5.8281 4.0861 -0.0000 -0.0000 0.0000 85.8074 9.1104 26.7769 -18.8282 29.2046 -4.9467 0.0000 0.0000 7.7830 -35.1986 -23.0701 15.4513 7.1250 -0.0000 -0.0000 -6.9249 -57.3752 2.1056
